<svg width="830" height="200" viewBox="0 0 830 200" fill="none" xmlns="http://www.w3.org/2000/svg">
<rect width="830" height="200" class="b"/>
<path fill-rule="evenodd" clip-rule="evenodd" d="M721.793 137L721.5 136.669L721.25 135.859L721 135.049L721.098 134.312L721.585 133.159L722.122 132.214L722.646 131.403L723.219 130.397L723.634 129.636L724.439 128.114L725.292 126.236L725.792 124.948L726.963 122.37L728.39 119.437L730.414 115.583L731.767 113.153L732.84 111.251L733.548 110.061L732.84 110.527L733.304 108.821L734.157 106.565L734.942 104.336L735.034 103.806L736.002 101.461L735.174 101.998L735.679 100.769L738.624 95.9894H737.994L737.336 96.5801L738.138 94.5775L739.575 92.1599L741.147 89.9541L742.279 88.6234L743.315 87.7602L744.292 86.7532L745.662 85.1947L746.821 83.9689L748.348 82.4793L750.013 81.0285L750.9 80.2644L751.852 79.5528L752.444 78.9574L753.05 78.471L753.829 77.8973L755.207 77.1131L755.885 76.7501V75.719V74.5936L755.762 74.1216L755.531 73.548L755.243 72.9453L754.752 72.2337L754.428 71.798L754.053 71.4568L753.706 71.2607L753.317 71.0937L752.336 70.9413L750.77 70.6363L750.106 70.4765L748.865 70.1643L747.747 69.823L746.294 69.3641L745.875 69.2281H745.503V69.0445L745.605 68.8541L745.875 68.5685L746.375 68.0993L746.963 67.6574L747.936 67.1134L748.865 66.6578L749.766 66.311L750.719 66.039L751.746 65.7262L752.421 65.4815L752.82 65.2163L752.901 64.9715L753.036 64.8763L753.415 64.7811L754.367 64.6927L755.651 64.4751L756.218 64.2439L756.752 63.9379L757.333 63.4551L757.867 63.0676L758.36 62.8228L759.238 62.5168L759.812 62.3128L760.677 62.0952L761.373 62H762.386L763.373 62.1428L764.454 62.2924L765.866 62.6256L767.359 63.2715L768.98 64.3051L770.438 65.5021L772.028 67.0786L772.685 67.8749L773.144 68.6154L773.658 69.7859L774.196 71.697L774.607 73.3134L774.805 74.7228L775.05 76.6975L775.153 77.2151L775.462 78.4413L775.604 79.1022L775.675 79.4764L775.81 79.7312L776.292 80.3762L776.885 80.9712L777.675 81.7736L778.513 82.6167L779.04 83.2015L779.418 83.6843L779.695 84.2759L779.945 85.1802L780.1 86.2954L780.141 88.0429L780.067 89.1581L779.817 90.4296L779.574 91.9119L779.155 93.8295L778.574 95.5702L777.81 97.8685L777.175 99.6296L776.364 101.445L775.729 102.581L775.182 103.376L774.986 102.941L774.865 102.907L774.662 103.172L774.277 104.294L773.669 106.273L773.215 107.348L772.15 109.119L770.945 110.978L769.282 113.088L768.272 114.115H767.979L767.012 113.306L765.799 114.398L765.131 114.965L764.365 115.477L763.85 115.61L763.544 115.547L763.446 115.414L763.544 115.196L763.787 114.762V114.51L763.669 114.321H763.397L763.001 114.671L762.474 115.027L761.723 115.313H760.769H760.492L760.353 115.477V115.679L760.018 115.731L759.603 116.031L759.559 116.442L759.078 116.376L759.02 116.582L758.728 116.714H758.51L758.327 116.904L758.254 117.066V117.484L757.955 118.023L757.475 118.655L757.043 119.233L758.576 120.852L760.069 122.381L761.92 124.231L763.643 125.917L764.542 126.74L765.15 127.107L767.092 127.698L768.543 128.04L769.202 128.102L769.902 127.864L770.52 127.698H771.786L772.589 127.864L773.484 128.319L774.266 128.962L775.183 129.853L775.409 130.391L775.481 131.707L775.028 131.085L774.678 130.63L774.184 130.143L773.7 129.749L773.371 129.573H772.99L772.795 129.853L772.65 130.236L772.249 130.474L771.786 130.557H771.251L770.417 130.391L769.707 130.308H769.037L768.904 130.391V131.034L768.77 131.085L768.543 130.93L768.183 130.06L767.967 129.749L767.813 129.635H767.638L766.896 130.474H766.66L765.651 129.967H765.455V130.143V130.237L765.799 130.391L766.331 130.621L766.746 130.874L767.509 131.56L767.967 132.115L768.543 132.869L768.708 133.226V133.411L768.463 133.445L768.183 133.336L767.597 132.801L767.141 132.431L766.583 132.115L765.651 131.738L765.002 131.656H764.587L764.199 131.834L764.076 132.033V132.294L763.885 132.486L763.517 132.595H762.488L761.084 132.431L759.227 132.333L758.305 132.174L758.25 132.294L758.518 132.949L758.972 133.836L759.433 134.854L759.371 135.034L759.227 134.958L758.972 134.708L758.367 133.877L758.25 133.766H758.009L757.806 133.948L757.61 133.995H757.299L756.603 133.717L755.448 133.037L754.347 132.333L753.915 132.174H753.306L752.604 132.248L751.442 132.629L750.084 133.247L748.712 133.914L748.165 134.145H747.8L747.53 133.832L747.469 133.526V132.982L747.287 132.867H746.755L746.091 133.165L745.454 133.63L744.894 134.228L744.446 134.89L744.124 135.552L743.95 136.074L743.873 136.172L743.635 135.961L743.544 135.327L743.635 134.714L743.803 134.095L744.09 133.526L744.446 133.031L745.013 132.454L745.587 132.01L746.238 131.771L747.567 131.503L749.309 131.158L750.632 130.658L751.185 130.214L751.367 129.968V129.602L750.576 128.559L749.358 127.158L747.378 125.045L745.853 123.545L744.677 122.524L743.922 121.933L743.308 121.504L743.139 121.443L742.565 122.035L741.47 123.483L740.523 124.738L739.336 126.246L737.726 128.219L736.277 129.941L734.329 132.01L733.102 133.254L731.841 134.361L730.933 135.021L730.146 135.559L729.188 135.301L728.364 135.124L727.83 135.021H727.289L726.398 135.233L724.307 136.153L722.771 136.724L721.793 137ZM747.522 121.102V120.828L747.764 120.189L747.996 119.276L748.147 118.393V117.967L748.994 117.5L750.798 116.485L751.575 116.089H751.958L752.351 116.576L752.754 117.662L753.178 118.748L753.5 119.276L753.874 119.682L754.569 120.27L755.801 121.427L757.814 123.416L759.578 125.162L760.669 126.282L761.357 127.203L761.459 127.446V127.895L761.042 128.588L760.72 128.993L760.186 129.303L759.22 129.649L758.151 129.892L757.002 129.826L756.299 129.443L755.816 129.303L754.974 128.816L754.315 128.337L752.771 126.916L750.927 125.022L749.507 123.614L748.576 122.532L748 121.809L747.522 121.265V121.102Z" class="w"/>
<path d="M51.8479 101V95.2254L56.9625 94.2355V59.7531L51.8479 58.7632V52.9556H56.9625H74.7152C78.3889 52.9556 81.5566 53.6045 84.2184 54.9024C86.8802 56.1784 88.9261 57.9712 90.356 60.281C91.7859 62.5689 92.5008 65.2417 92.5008 68.2994C92.5008 71.3572 91.7859 74.041 90.356 76.3508C88.9261 78.6387 86.8802 80.4205 84.2184 81.6964C81.5566 82.9503 78.3889 83.5773 74.7152 83.5773H66.5978V94.2355L71.7454 95.2254V101H51.8479ZM66.5978 76.1529H74.7152C77.399 76.1529 79.4228 75.4269 80.7867 73.975C82.1726 72.5011 82.8655 70.6313 82.8655 68.3654C82.8655 66.0556 82.1726 64.1528 80.7867 62.6569C79.4228 61.139 77.399 60.38 74.7152 60.38H66.5978V76.1529ZM107.383 101.693C103.841 101.693 101.025 100.747 98.9353 98.8552C96.8455 96.9413 95.8006 94.3455 95.8006 91.0677C95.8006 88.8239 96.4055 86.8551 97.6154 85.1612C98.8474 83.4673 100.651 82.1364 103.027 81.1685C105.425 80.2006 108.373 79.7166 111.87 79.7166H116.589V77.0768C116.589 75.3609 116.083 73.975 115.071 72.9191C114.081 71.8412 112.585 71.3022 110.583 71.3022C109.55 71.3022 108.626 71.4342 107.812 71.6982C106.998 71.9402 106.25 72.2921 105.568 72.7541L104.809 77.4728H97.8794L97.7474 68.2005C99.6173 67.1445 101.641 66.2866 103.819 65.6266C105.997 64.9667 108.428 64.6367 111.111 64.6367C115.775 64.6367 119.46 65.7256 122.166 67.9035C124.871 70.0593 126.224 73.1501 126.224 77.1758V91.8927C126.224 92.3766 126.224 92.8606 126.224 93.3446C126.246 93.8065 126.29 94.2575 126.356 94.6975L130.085 95.2254V101H118.14C117.898 100.384 117.656 99.7241 117.414 99.0201C117.172 98.3162 116.996 97.6123 116.886 96.9083C115.742 98.3602 114.389 99.5261 112.827 100.406C111.287 101.264 109.473 101.693 107.383 101.693ZM109.957 94.5655C111.298 94.5655 112.574 94.2685 113.784 93.6745C114.994 93.0586 115.929 92.2557 116.589 91.2657V85.6231H111.837C109.726 85.6231 108.12 86.1071 107.02 87.075C105.942 88.043 105.403 89.2089 105.403 90.5728C105.403 91.8487 105.799 92.8386 106.591 93.5426C107.405 94.2245 108.527 94.5655 109.957 94.5655ZM146.353 101.693C143.031 101.693 140.468 100.78 138.664 98.9542C136.883 97.1283 135.992 94.2355 135.992 90.2758V72.0612H131.075V65.2967H135.992V56.5523H145.594V65.2967H152.16V72.0612H145.594V90.2428C145.594 91.6287 145.88 92.6186 146.452 93.2126C147.046 93.8065 147.849 94.1035 148.861 94.1035C149.411 94.1035 149.983 94.0705 150.576 94.0045C151.192 93.9165 151.72 93.8285 152.16 93.7405L152.985 100.703C151.995 100.989 150.917 101.22 149.752 101.396C148.608 101.594 147.475 101.693 146.353 101.693ZM157.341 101V95.2254L161.961 94.2355V72.0942L156.846 71.1042V65.2967H170.936L171.299 69.7183L171.365 70.5103C172.245 68.5744 173.334 67.1115 174.632 66.1216C175.93 65.1317 177.48 64.6367 179.284 64.6367C179.856 64.6367 180.483 64.6917 181.165 64.8017C181.847 64.8897 182.452 65.0107 182.98 65.1647L181.957 74.041L177.172 73.777C175.809 73.711 174.698 73.942 173.84 74.47C173.004 74.9979 172.256 75.7569 171.596 76.7468V94.2355L176.216 95.2254V101H157.341ZM202.218 101.693C198.698 101.693 195.673 100.923 193.143 99.3831C190.613 97.8432 188.678 95.7094 187.336 92.9816C185.994 90.2318 185.323 87.075 185.323 83.5113V82.8184C185.323 79.2766 185.994 76.1419 187.336 73.4141C188.678 70.6643 190.603 68.5194 193.11 66.9795C195.64 65.4177 198.654 64.6367 202.152 64.6367C205.693 64.6367 208.718 65.4177 211.226 66.9795C213.734 68.5194 215.659 70.6533 217.001 73.3811C218.342 76.1089 219.013 79.2546 219.013 82.8184V83.5113C219.013 87.075 218.342 90.2318 217.001 92.9816C215.659 95.7094 213.734 97.8432 211.226 99.3831C208.718 100.923 205.715 101.693 202.218 101.693ZM202.218 94.3015C203.89 94.3015 205.253 93.8505 206.309 92.9486C207.365 92.0467 208.146 90.7928 208.652 89.1869C209.158 87.559 209.411 85.6671 209.411 83.5113V82.8184C209.411 80.7065 209.158 78.8477 208.652 77.2418C208.146 75.6139 207.354 74.349 206.276 73.4471C205.22 72.5231 203.846 72.0612 202.152 72.0612C200.502 72.0612 199.138 72.5231 198.06 73.4471C196.982 74.349 196.19 75.6139 195.684 77.2418C195.2 78.8477 194.958 80.7065 194.958 82.8184V83.5113C194.958 85.6671 195.2 87.559 195.684 89.1869C196.19 90.8148 196.982 92.0797 198.06 92.9816C199.138 93.8615 200.524 94.3015 202.218 94.3015ZM222.973 101V95.2254L227.593 94.2355V72.0942L222.478 71.1042V65.2967H236.568L236.997 70.4113C238.185 68.5854 239.648 67.1665 241.386 66.1546C243.146 65.1427 245.147 64.6367 247.391 64.6367C250.933 64.6367 253.705 65.7696 255.707 68.0355C257.708 70.3013 258.709 73.854 258.709 78.6937V94.2355L263.329 95.2254V101H244.916V95.2254L249.041 94.2355V78.7267C249.041 76.3288 248.568 74.635 247.622 73.645C246.676 72.6331 245.268 72.1272 243.399 72.1272C242.013 72.1272 240.803 72.4241 239.769 73.0181C238.757 73.59 237.91 74.415 237.228 75.4929V94.2355L241.122 95.2254V101H222.973ZM283.194 101.693C279.784 101.693 276.803 100.945 274.251 99.4491C271.699 97.9312 269.72 95.8524 268.312 93.2126C266.926 90.5728 266.233 87.559 266.233 84.1713V82.8514C266.233 79.3096 266.893 76.1749 268.213 73.4471C269.533 70.6973 271.391 68.5414 273.789 66.9795C276.209 65.3957 279.058 64.6147 282.336 64.6367C285.569 64.6367 288.286 65.2747 290.486 66.5506C292.686 67.8265 294.358 69.6633 295.502 72.0612C296.646 74.459 297.218 77.3628 297.218 80.7725V86.0191H276.231L276.165 86.2171C276.297 87.779 276.682 89.1759 277.32 90.4078C277.98 91.6177 278.904 92.5746 280.092 93.2786C281.28 93.9605 282.721 94.3015 284.414 94.3015C286.174 94.3015 287.813 94.0815 289.331 93.6415C290.871 93.1796 292.367 92.5086 293.819 91.6287L296.426 97.5683C294.952 98.7562 293.093 99.7461 290.849 100.538C288.627 101.308 286.075 101.693 283.194 101.693ZM276.297 79.6506H288.209V78.7927C288.209 77.3408 288.011 76.0979 287.615 75.0639C287.241 74.008 286.625 73.1941 285.767 72.6221C284.931 72.0502 283.843 71.7642 282.501 71.7642C281.225 71.7642 280.147 72.1052 279.267 72.7871C278.387 73.4471 277.694 74.36 277.188 75.5259C276.704 76.6918 276.374 78.0117 276.198 79.4856L276.297 79.6506ZM317.049 101.693C314.387 101.693 311.901 101.44 309.592 100.934C307.304 100.428 305.104 99.7021 302.992 98.7562L302.893 88.6589H309.592L310.879 93.8065C311.626 94.1805 312.44 94.4775 313.32 94.6975C314.222 94.9175 315.245 95.0274 316.389 95.0274C318.545 95.0274 320.063 94.6755 320.943 93.9715C321.823 93.2676 322.263 92.3876 322.263 91.3317C322.263 90.3418 321.79 89.4729 320.844 88.7249C319.92 87.955 318.061 87.284 315.267 86.7121C311.043 85.8321 307.931 84.4682 305.929 82.6204C303.927 80.7725 302.926 78.4077 302.926 75.5259C302.926 73.5461 303.421 71.7422 304.411 70.1143C305.423 68.4864 306.952 67.1775 308.998 66.1876C311.065 65.1977 313.705 64.7027 316.917 64.7027C319.601 64.7027 322.054 64.9667 324.276 65.4947C326.519 66.0006 328.4 66.6716 329.918 67.5075L330.017 77.2748H323.352L322.329 72.5891C321.735 72.1492 321.031 71.8192 320.217 71.5992C319.425 71.3792 318.523 71.2692 317.511 71.2692C315.817 71.2692 314.519 71.6102 313.617 72.2921C312.715 72.9741 312.264 73.854 312.264 74.9319C312.264 75.5479 312.418 76.1199 312.726 76.6478C313.056 77.1758 313.694 77.6707 314.64 78.1327C315.586 78.5947 316.961 79.0346 318.765 79.4526C323.187 80.4645 326.409 81.8174 328.433 83.5113C330.457 85.1832 331.469 87.537 331.469 90.5728C331.469 93.8945 330.259 96.5783 327.839 98.6242C325.441 100.67 321.845 101.693 317.049 101.693ZM60.5372 146.462C58.6454 146.462 57.0175 145.978 55.6536 145.01C54.3043 144.027 53.2704 142.664 52.5518 140.918C51.8332 139.159 51.4739 137.105 51.4739 134.759V134.297C51.4739 131.789 51.8332 129.597 52.5518 127.719C53.2851 125.842 54.3263 124.383 55.6756 123.342C57.0248 122.286 58.638 121.758 60.5152 121.758C61.8204 121.758 62.9644 122.022 63.947 122.55C64.9296 123.063 65.7802 123.796 66.4988 124.75V116.214L63.067 115.554V111.683H66.4988H72.9223V141.49L76.0021 142.15V146H67.3567L66.8727 143.096C66.1248 144.196 65.2302 145.032 64.1889 145.604C63.1623 146.176 61.9451 146.462 60.5372 146.462ZM62.4511 141.468C63.3457 141.468 64.1303 141.278 64.8049 140.896C65.4795 140.515 66.0441 139.965 66.4988 139.247V129.149C66.0588 128.387 65.5015 127.8 64.8269 127.389C64.1523 126.964 63.375 126.751 62.4951 126.751C61.4245 126.751 60.5445 127.074 59.8553 127.719C59.1806 128.35 58.682 129.23 58.3594 130.359C58.0514 131.488 57.8974 132.801 57.8974 134.297V134.759C57.8974 136.841 58.2494 138.484 58.9533 139.686C59.6573 140.874 60.8232 141.468 62.4511 141.468ZM89.3991 146.462C87.1259 146.462 85.1387 145.963 83.4375 144.966C81.7363 143.954 80.4164 142.568 79.4778 140.808C78.5539 139.049 78.0919 137.039 78.0919 134.781V133.901C78.0919 131.54 78.5319 129.45 79.4118 127.631C80.2917 125.798 81.531 124.361 83.1295 123.32C84.7427 122.264 86.6419 121.743 88.8271 121.758C90.9829 121.758 92.7941 122.183 94.2607 123.034C95.7272 123.884 96.8418 125.109 97.6044 126.707C98.3671 128.306 98.7484 130.242 98.7484 132.515V136.013H84.7574L84.7134 136.145C84.8014 137.186 85.058 138.117 85.4833 138.939C85.9233 139.745 86.5393 140.383 87.3312 140.852C88.1231 141.307 89.0837 141.534 90.213 141.534C91.3862 141.534 92.4788 141.388 93.4907 141.094C94.5173 140.786 95.5146 140.339 96.4825 139.752L98.2204 143.712C97.2378 144.504 95.9986 145.164 94.5027 145.692C93.0214 146.205 91.3202 146.462 89.3991 146.462ZM84.8014 131.767H92.7428V131.195C92.7428 130.227 92.6108 129.399 92.3468 128.709C92.0975 128.005 91.6869 127.463 91.1149 127.081C90.5576 126.7 89.8317 126.509 88.9371 126.509C88.0865 126.509 87.3679 126.737 86.7812 127.191C86.1946 127.631 85.7327 128.24 85.3954 129.017C85.0727 129.795 84.8527 130.674 84.7354 131.657L84.8014 131.767ZM121.913 146.462C120.021 146.462 118.393 145.978 117.029 145.01C115.68 144.027 114.646 142.664 113.927 140.918C113.209 139.159 112.849 137.105 112.849 134.759V134.297C112.849 131.789 113.209 129.597 113.927 127.719C114.66 125.842 115.702 124.383 117.051 123.342C118.4 122.286 120.013 121.758 121.891 121.758C123.196 121.758 124.34 122.022 125.322 122.55C126.305 123.063 127.156 123.796 127.874 124.75V116.214L124.442 115.554V111.683H127.874H134.298V141.49L137.377 142.15V146H128.732L128.248 143.096C127.5 144.196 126.606 145.032 125.564 145.604C124.538 146.176 123.321 146.462 121.913 146.462ZM123.826 141.468C124.721 141.468 125.506 141.278 126.18 140.896C126.855 140.515 127.42 139.965 127.874 139.247V129.149C127.434 128.387 126.877 127.8 126.202 127.389C125.528 126.964 124.75 126.751 123.87 126.751C122.8 126.751 121.92 127.074 121.231 127.719C120.556 128.35 120.057 129.23 119.735 130.359C119.427 131.488 119.273 132.801 119.273 134.297V134.759C119.273 136.841 119.625 138.484 120.329 139.686C121.033 140.874 122.199 141.468 123.826 141.468ZM139.225 146V142.15L142.327 141.49V126.729L138.895 126.069V122.198H148.751V141.49L151.83 142.15V146H139.225ZM142.107 117.16V111.683H148.751V117.16H142.107ZM164.193 146.462C162.419 146.462 160.762 146.293 159.222 145.956C157.697 145.619 156.23 145.135 154.822 144.504L154.756 137.773H159.222L160.08 141.204C160.578 141.454 161.121 141.652 161.708 141.798C162.309 141.945 162.991 142.018 163.753 142.018C165.191 142.018 166.203 141.784 166.789 141.314C167.376 140.845 167.669 140.258 167.669 139.554C167.669 138.895 167.354 138.315 166.723 137.817C166.107 137.303 164.868 136.856 163.006 136.475C160.19 135.888 158.115 134.979 156.78 133.747C155.445 132.515 154.778 130.938 154.778 129.017C154.778 127.697 155.108 126.495 155.768 125.41C156.443 124.324 157.462 123.452 158.826 122.792C160.204 122.132 161.964 121.802 164.105 121.802C165.895 121.802 167.53 121.978 169.011 122.33C170.507 122.667 171.761 123.114 172.773 123.672L172.839 130.183H168.395L167.713 127.059C167.317 126.766 166.848 126.546 166.305 126.399C165.777 126.253 165.176 126.179 164.501 126.179C163.372 126.179 162.507 126.407 161.906 126.861C161.304 127.316 161.004 127.903 161.004 128.621C161.004 129.032 161.106 129.413 161.312 129.765C161.532 130.117 161.957 130.447 162.588 130.755C163.218 131.063 164.135 131.356 165.337 131.635C168.285 132.31 170.434 133.212 171.783 134.341C173.132 135.455 173.807 137.025 173.807 139.049C173.807 141.263 173 143.052 171.387 144.416C169.788 145.78 167.391 146.462 164.193 146.462ZM188.128 146.462C185.855 146.462 183.867 145.963 182.166 144.966C180.465 143.954 179.145 142.568 178.206 140.808C177.282 139.049 176.821 137.039 176.821 134.781V133.901C176.821 131.54 177.26 129.45 178.14 127.631C179.02 125.798 180.26 124.361 181.858 123.32C183.471 122.264 185.371 121.743 187.556 121.758C189.712 121.758 191.523 122.183 192.989 123.034C194.456 123.884 195.57 125.109 196.333 126.707C197.096 128.306 197.477 130.242 197.477 132.515V136.013H183.486L183.442 136.145C183.53 137.186 183.787 138.117 184.212 138.939C184.652 139.745 185.268 140.383 186.06 140.852C186.852 141.307 187.812 141.534 188.942 141.534C190.115 141.534 191.207 141.388 192.219 141.094C193.246 140.786 194.243 140.339 195.211 139.752L196.949 143.712C195.966 144.504 194.727 145.164 193.231 145.692C191.75 146.205 190.049 146.462 188.128 146.462ZM183.53 131.767H191.471V131.195C191.471 130.227 191.339 129.399 191.075 128.709C190.826 128.005 190.415 127.463 189.844 127.081C189.286 126.7 188.56 126.509 187.666 126.509C186.815 126.509 186.096 126.737 185.51 127.191C184.923 127.631 184.461 128.24 184.124 129.017C183.801 129.795 183.581 130.674 183.464 131.657L183.53 131.767ZM200.205 146V142.15L203.285 141.49V126.729L199.875 126.069V122.198H209.268L209.554 125.608C210.346 124.39 211.321 123.444 212.48 122.77C213.653 122.095 214.988 121.758 216.484 121.758C218.845 121.758 220.693 122.513 222.027 124.024C223.362 125.534 224.029 127.903 224.029 131.129V141.49L227.109 142.15V146H214.834V142.15L217.583 141.49V131.151C217.583 129.553 217.268 128.423 216.638 127.763C216.007 127.089 215.068 126.751 213.822 126.751C212.898 126.751 212.091 126.949 211.402 127.345C210.727 127.727 210.163 128.277 209.708 128.995V141.49L212.304 142.15V146H200.205ZM208.542 117.776L205.22 116.896C205.22 115.914 205.448 115.004 205.902 114.168C206.372 113.332 206.988 112.658 207.75 112.145C208.513 111.631 209.341 111.375 210.236 111.375C210.94 111.375 211.673 111.551 212.436 111.903C213.198 112.255 213.924 112.614 214.614 112.98C215.318 113.332 215.912 113.508 216.396 113.508C216.997 113.494 217.473 113.266 217.825 112.826C218.192 112.372 218.375 111.8 218.375 111.111L221.697 112.035C221.697 113.046 221.463 113.97 220.993 114.806C220.539 115.628 219.93 116.288 219.167 116.786C218.405 117.27 217.569 117.512 216.66 117.512C215.897 117.512 215.134 117.336 214.372 116.984C213.609 116.632 212.898 116.28 212.238 115.928C211.578 115.562 210.999 115.378 210.5 115.378C209.899 115.378 209.422 115.613 209.07 116.082C208.718 116.552 208.542 117.116 208.542 117.776ZM240.308 146.462C237.961 146.462 235.945 145.949 234.258 144.922C232.572 143.895 231.281 142.473 230.387 140.654C229.492 138.821 229.045 136.717 229.045 134.341V133.879C229.045 131.518 229.492 129.428 230.387 127.609C231.281 125.776 232.564 124.346 234.236 123.32C235.923 122.278 237.932 121.758 240.264 121.758C242.625 121.758 244.641 122.278 246.313 123.32C247.985 124.346 249.268 125.769 250.163 127.587C251.058 129.406 251.505 131.503 251.505 133.879V134.341C251.505 136.717 251.058 138.821 250.163 140.654C249.268 142.473 247.985 143.895 246.313 144.922C244.641 145.949 242.64 146.462 240.308 146.462ZM240.308 141.534C241.422 141.534 242.332 141.234 243.036 140.632C243.74 140.031 244.26 139.195 244.597 138.125C244.935 137.039 245.103 135.778 245.103 134.341V133.879C245.103 132.471 244.935 131.232 244.597 130.161C244.26 129.076 243.732 128.233 243.014 127.631C242.31 127.015 241.393 126.707 240.264 126.707C239.164 126.707 238.255 127.015 237.536 127.631C236.817 128.233 236.289 129.076 235.952 130.161C235.629 131.232 235.468 132.471 235.468 133.879V134.341C235.468 135.778 235.629 137.039 235.952 138.125C236.289 139.21 236.817 140.053 237.536 140.654C238.255 141.241 239.179 141.534 240.308 141.534Z" class="w"/>
<style>
    .w {
        fill: #FAFAFA;
    }
    .b {
        fill: #18181B;
    }
    @media (prefers-color-scheme: dark) {
        .w {
            fill: #18181B;
        }
        .b {
            fill: #FAFAFA;
        }
    }
</style>
</svg>

